<?xml version="1.0" encoding="utf-8"?>
<!-- Generator: Adobe Illustrator 23.0.1, SVG Export Plug-In . SVG Version: 6.00 Build 0)  -->
<svg version="1.1" id="圖層_1" xmlns="http://www.w3.org/2000/svg" xmlns:xlink="http://www.w3.org/1999/xlink" x="0px" y="0px"
	 viewBox="0 0 448 512" style="enable-background:new 0 0 448 512;" xml:space="preserve">
<style type="text/css">
	.st0{fill:#A6A6A6;}
</style>
<path class="st0" d="M246.6,233.4l-160-160c-12.5-12.5-32.8-12.5-45.3,0s-12.5,32.8,0,45.3L178.8,256L41.4,393.4
	c-12.5,12.5-12.5,32.8,0,45.3c6.2,6.3,14.4,9.4,22.6,9.4s16.4-3.1,22.6-9.4l160-160C259.1,266.1,259.1,245.9,246.6,233.4z
	 M438.6,233.4l-160-160c-12.5-12.5-32.8-12.5-45.3,0s-12.5,32.8,0,45.3L370.8,256L233.4,393.4c-12.5,12.5-12.5,32.8,0,45.3
	c6.2,6.3,14.4,9.4,22.6,9.4c8.2,0,16.4-3.1,22.6-9.4l160-160C451.1,266.1,451.1,245.9,438.6,233.4z"/>
</svg>
