<svg xmlns="http://www.w3.org/2000/svg" xmlns:xlink="http://www.w3.org/1999/xlink" width="28" height="25" viewBox="0 0 28 25">
    <defs>
        <path id="iuoxixx70a" d="M0 0.565L25.864 0.565 25.864 24 0 24z"/>
    </defs>
    <g fill="none" fill-rule="evenodd">
        <g>
            <g>
                <g>
                    <g>
                        <g>
                            <g>
                                <g transform="translate(-1156 -621) translate(529 416) translate(501) translate(50 190) translate(76 15) translate(1) translate(0 .036)">
                                    <mask id="bt1kiactyb" fill="#fff">
                                        <use xlink:href="#iuoxixx70a"/>
                                    </mask>
                                    <path fill="#FFF" d="M25.752 11.669c.06-.3.09-.552.103-.75.022-.326-.003-.81-.012-.962C25.529 4.73 19.867.564 12.928.564 5.788.564 0 4.974 0 10.414c0 5.001 4.89 9.13 11.225 9.767.387.038.667.373.624.744l-.27 2.325c-.061.528.509.912 1.008.681 5.352-2.474 8.553-5.02 10.465-7.225.347-.401 1.481-1.923 1.712-2.324.491-.848.83-1.759.988-2.713" mask="url(#bt1kiactyb)"/>
                                </g>
                                <path fill="#52B24C" d="M5.82 12.445V8.296c0-.35-.297-.633-.662-.633-.365 0-.661.284-.661.633v4.784c0 .35.296.633.661.633h2.645c.365 0 .662-.283.662-.633 0-.35-.297-.635-.662-.635H5.82zM9.898 13.713H9.61c-.286 0-.517-.222-.517-.495v-5.06c0-.274.231-.495.517-.495h.288c.286 0 .517.221.517.495v5.06c0 .273-.231.495-.517.495M15.243 8.296v2.923s-2.641-3.3-2.682-3.344c-.126-.136-.312-.219-.518-.212-.36.014-.636.315-.636.66v4.756c0 .35.296.634.662.634.365 0 .66-.283.66-.634v-2.904s2.682 3.329 2.722 3.364c.117.107.273.172.447.174.367.003.667-.308.667-.66V8.296c0-.35-.296-.633-.66-.633-.366 0-.662.284-.662.633M21.525 8.296c0-.35-.296-.633-.662-.633h-2.645c-.365 0-.66.284-.66.633v4.784c0 .35.295.633.66.633h2.645c.366 0 .662-.283.662-.633 0-.35-.296-.635-.662-.635H18.88v-1.124h1.983c.366 0 .662-.284.662-.633 0-.35-.296-.633-.662-.633H18.88V8.93h1.983c.366 0 .662-.284.662-.633" transform="translate(-1156 -621) translate(529 416) translate(501) translate(50 190) translate(76 15) translate(1)"/>
                            </g>
                        </g>
                    </g>
                </g>
            </g>
        </g>
    </g>
</svg>
