<svg id="圖層_1" data-name="圖層 1" xmlns="http://www.w3.org/2000/svg" viewBox="0 0 319.41 45.09"><title>logo</title><polygon points="0 0.56 8.83 0.56 35.94 14.76 35.94 0.56 44.77 0.56 44.77 44.08 35.94 44.08 35.94 24.11 8.83 10 8.83 44.08 0 44.08 0 0.56"/><rect x="55.96" y="0.56" width="8.88" height="43.52"/><path d="M229.24,162.22a21.43,21.43,0,0,1,1.75-8.67,20,20,0,0,1,5.08-7,24.1,24.1,0,0,1,8.13-4.66,32.3,32.3,0,0,1,10.87-1.7,41.81,41.81,0,0,1,9.76,1.07,31.17,31.17,0,0,1,8.26,3.27L269,151.22a14.35,14.35,0,0,0-2.63-1.33,24,24,0,0,0-3.17-1,32.4,32.4,0,0,0-3.48-.63,28.55,28.55,0,0,0-3.55-.22,25.28,25.28,0,0,0-7.55,1,16.25,16.25,0,0,0-5.58,2.93,12.42,12.42,0,0,0-3.45,4.48,13.65,13.65,0,0,0-1.19,5.72,14.15,14.15,0,0,0,1.23,5.93,13.11,13.11,0,0,0,3.55,4.66,16.88,16.88,0,0,0,5.68,3.07,24.35,24.35,0,0,0,7.59,1.1,26.91,26.91,0,0,0,3.81-.28,30.41,30.41,0,0,0,3.66-.77,26.83,26.83,0,0,0,3.41-1.17,25.59,25.59,0,0,0,3.06-1.49l4.07,6.69a30,30,0,0,1-8.24,3.57,36.84,36.84,0,0,1-9.94,1.3,36.25,36.25,0,0,1-11.78-1.74,24.27,24.27,0,0,1-8.46-4.79,19.6,19.6,0,0,1-5.11-7.18,23.09,23.09,0,0,1-1.71-8.9" transform="translate(-155.79 -140.17)"/><polygon points="128.4 0.56 165.46 0.56 165.46 8.3 137.23 8.3 137.23 16.99 162.23 16.99 162.23 24.25 137.23 24.25 137.23 36.37 166.04 36.37 166.04 44.08 128.4 44.08 128.4 0.56"/><path d="M337.7,148.55l.54-3.92.44-4.27,4.55.54-.48,4.17-.45,3.48H351V154q0,11.41-4,18.32l3.14,2.21,2.64,1.91-2.6,4.61c-.32-.3-.58-.54-.78-.74-.75-.68-1.41-1.26-2-1.71l-2.89-2.36a42.16,42.16,0,0,1-9.12,9l-3.38-3.53a36.69,36.69,0,0,0,8.68-8.43l-3.78-2.5c-.95-.58-2.3-1.37-4.06-2.35a72.35,72.35,0,0,0,3.77-13.28c.1-.62.24-1.4.44-2.35h-5.05v-4.26ZM343,169.67a33.51,33.51,0,0,0,2.57-6.47,47.73,47.73,0,0,0,1.1-8.82c0-.43,0-.95.05-1.57h-5.14a115,115,0,0,1-3.14,13.82Zm24.5-9.17h9.66V165h-9.66v15.93a3.49,3.49,0,0,1-1.32,3.16c-.88.57-2.55.86-5,.86h-5.34l-1-4.61,4.66.2h1.32a3.86,3.86,0,0,0,1.42-.17c.23-.12.34-.52.34-1.21V165H351.42V160.5h11.17v-6a67.82,67.82,0,0,0,6.52-6.42c.23-.3.54-.67.93-1.13H352.79v-4.51h22.79v4.22a45.23,45.23,0,0,1-8,9.8Z" transform="translate(-155.79 -140.17)"/><path d="M388.71,145.75a17.06,17.06,0,0,0-2.06-5l4.41-.58a15.32,15.32,0,0,1,1.33,3l.83,2.59h6.42V150H381.12v-4.22ZM382.49,153h15.58v4H382.49Zm0,7.15h15.68v4H382.49Zm.15,7.65h15.53v17h-4.41v-2.2h-6.71v2.69h-4.41Zm11.12,4h-6.71v6.86h6.71ZM420.37,152a3.27,3.27,0,0,0,.46,2.14,2.59,2.59,0,0,0,1.79.46h3v4.12H421a5.7,5.7,0,0,1-3.95-1.18c-.87-.78-1.3-2.32-1.3-4.6v-7.35H409v1.56a15.67,15.67,0,0,1-1.25,6.64q-1.25,2.67-5.56,6.5l-3.58-3.19c2.52-1.93,4.13-3.67,4.85-5.22s1.08-4.15,1.08-7.81v-2.6h15.83Zm2.3,13a26.46,26.46,0,0,1-5,9.65l-1.17,1.47a46,46,0,0,0,9.75,4.51L423.6,185a56.05,56.05,0,0,1-11-5.69,48.25,48.25,0,0,1-9.61,4.8c-.52.2-1.19.45-2,.74l-2.4-4.21a36.47,36.47,0,0,0,10.44-4.27l-1.13-1.13a37.93,37.93,0,0,1-4.41-5.39c-.23-.36-.55-.83-1-1.42l3.68-2.2,2.74,3.48a28.83,28.83,0,0,0,3.87,3.92l.64-.64a20.06,20.06,0,0,0,4-6.32l.49-1.23H400.72v-4.06h21.95Z" transform="translate(-155.79 -140.17)"/><path d="M451.73,150H430.07v-4.17h8.43l-.88-2.5a26.36,26.36,0,0,0-1.23-2.6l4.76-.58a20.6,20.6,0,0,1,2,5.14c0,.13.08.31.14.54h8.43Zm-20.09,3.13h18.52v3.92H431.64Zm0,7.21h18.52v3.87H431.64Zm.15,7.64H450v16.76h-4.71v-2.11h-8.82v2.6h-4.65Zm13.47,3.82h-8.82v7h8.82Zm21.22-31.65v14h8.73v4.46h-8.73v26.66h-4.85V158.59h-9.31v-4.46h9.31v-14Z" transform="translate(-155.79 -140.17)"/></svg>